<svg id="visual" viewBox="0 0 1920 1080" width="1920" height="1080" xmlns="http://www.w3.org/2000/svg" xmlns:xlink="http://www.w3.org/1999/xlink" version="1.1"><rect width="1920" height="1080" fill="#0f1011"></rect><g><g transform="translate(1429 750)"><path d="M0 -140L121.2 -70L121.2 70L0 140L-121.2 70L-121.2 -70Z" fill="none" stroke="#70e087" stroke-width="3"></path></g><g transform="translate(1683 244)"><path d="M0 -106L91.8 -53L91.8 53L0 106L-91.8 53L-91.8 -53Z" fill="none" stroke="#70e087" stroke-width="3"></path></g><g transform="translate(954 1047)"><path d="M0 -71L61.5 -35.5L61.5 35.5L0 71L-61.5 35.5L-61.5 -35.5Z" fill="none" stroke="#70e087" stroke-width="3"></path></g><g transform="translate(343 428)"><path d="M0 -125L108.3 -62.5L108.3 62.5L0 125L-108.3 62.5L-108.3 -62.5Z" stroke="#70e087" fill="none" stroke-width="3"></path></g><g transform="translate(1742 862)"><path d="M0 -138L119.5 -69L119.5 69L0 138L-119.5 69L-119.5 -69Z" stroke="#70e087" fill="none" stroke-width="3"></path></g><g transform="translate(1832 537)"><path d="M0 -137L118.6 -68.5L118.6 68.5L0 137L-118.6 68.5L-118.6 -68.5Z" stroke="#70e087" fill="none" stroke-width="3"></path></g></g></svg>