<svg id="visual" viewBox="0 0 1920 1080" width="1920" height="1080" xmlns="http://www.w3.org/2000/svg" xmlns:xlink="http://www.w3.org/1999/xlink" version="1.1"><rect width="1920" height="1080" fill="#0f1011"></rect><g><g transform="translate(72 459)"><path d="M0 -140L121.2 -70L121.2 70L0 140L-121.2 70L-121.2 -70Z" fill="none" stroke="#d9d962" stroke-width="3"></path></g><g transform="translate(1234 769)"><path d="M0 -96L83.1 -48L83.1 48L0 96L-83.1 48L-83.1 -48Z" fill="none" stroke="#d9d962" stroke-width="3"></path></g><g transform="translate(747 968)"><path d="M0 -114L98.7 -57L98.7 57L0 114L-98.7 57L-98.7 -57Z" fill="none" stroke="#d9d962" stroke-width="3"></path></g><g transform="translate(1376 460)"><path d="M0 -68L58.9 -34L58.9 34L0 68L-58.9 34L-58.9 -34Z" stroke="#d9d962" fill="none" stroke-width="3"></path></g><g transform="translate(358 326)"><path d="M0 -125L108.3 -62.5L108.3 62.5L0 125L-108.3 62.5L-108.3 -62.5Z" stroke="#d9d962" fill="none" stroke-width="3"></path></g><g transform="translate(35 832)"><path d="M0 -129L111.7 -64.5L111.7 64.5L0 129L-111.7 64.5L-111.7 -64.5Z" stroke="#d9d962" fill="none" stroke-width="3"></path></g><g transform="translate(1822 466)"><path d="M0 -106L91.8 -53L91.8 53L0 106L-91.8 53L-91.8 -53Z" stroke="#d9d962" fill="none" stroke-width="3"></path></g><g transform="translate(1554 1068)"><path d="M0 -129L111.7 -64.5L111.7 64.5L0 129L-111.7 64.5L-111.7 -64.5Z" stroke="#d9d962" fill="none" stroke-width="3"></path></g><g transform="translate(1556 87)"><path d="M0 -129L111.7 -64.5L111.7 64.5L0 129L-111.7 64.5L-111.7 -64.5Z" stroke="#d9d962" fill="none" stroke-width="3"></path></g></g></svg>