<svg id="visual" viewBox="0 0 1920 1080" width="1920" height="1080" xmlns="http://www.w3.org/2000/svg" xmlns:xlink="http://www.w3.org/1999/xlink" version="1.1"><rect x="0" y="0" width="1920" height="1080" fill="#141617"></rect><defs><linearGradient id="grad1_0" x1="43.8%" y1="0%" x2="100%" y2="100%"><stop offset="14.444444444444446%" stop-color="#141617" stop-opacity="1"></stop><stop offset="85.55555555555554%" stop-color="#141617" stop-opacity="1"></stop></linearGradient></defs><defs><linearGradient id="grad2_0" x1="0%" y1="0%" x2="56.3%" y2="100%"><stop offset="14.444444444444446%" stop-color="#141617" stop-opacity="1"></stop><stop offset="85.55555555555554%" stop-color="#141617" stop-opacity="1"></stop></linearGradient></defs><g transform="translate(1920, 0)"><path d="M0 648C-92.9 596.8 -185.8 545.6 -287.5 498C-389.2 450.4 -499.6 406.4 -561.2 324C-622.7 241.6 -635.4 120.8 -648 0L0 0Z" fill="#8a62da"></path></g><g transform="translate(0, 1080)"><path d="M0 -648C76.4 -568.1 152.8 -488.3 256.5 -444.3C360.2 -400.3 491.4 -392.1 561.2 -324C631 -255.9 639.5 -128 648 0L0 0Z" fill="#8a62da"></path></g></svg>